<svg width="277" height="140" viewBox="0 0 277 140" fill="none" xmlns="http://www.w3.org/2000/svg">
<path fill-rule="evenodd" clip-rule="evenodd" d="M94.0632 1.20949C93.921 1.4283 93.7645 3.65701 93.7143 6.16191C93.596 12.0254 93.5458 12.1282 90.7602 12.1282C89.135 12.1282 88.5626 12.2442 88.4264 12.5993C88.2961 12.9377 87.7679 13.0704 86.5526 13.0704C85.0696 13.0704 84.8605 13.1481 84.8605 13.6981C84.8605 14.1872 84.6514 14.3271 83.9212 14.3271C82.9533 14.3271 81.4082 15.4032 81.4082 16.0763C81.4082 16.2867 81.1955 16.539 80.9373 16.6383C80.6613 16.7435 80.4665 17.2146 80.4665 17.7706C80.4665 18.3768 80.3064 18.7235 80.0267 18.7235C79.6145 18.7235 78.2689 20.8936 78.2689 21.5584C78.2689 21.7258 77.9869 22.1455 77.6415 22.491C77.2962 22.8366 77.0141 23.4021 77.0141 23.7477C77.0141 24.0968 76.805 24.3754 76.5433 24.3754C76.284 24.3754 76.0725 24.5822 76.0725 24.8357C76.0725 25.088 75.7893 25.4467 75.4439 25.632C75.0771 25.8281 74.8165 26.2896 74.8165 26.7416C74.8165 27.2043 74.6361 27.5152 74.3672 27.5152C74.1199 27.5152 73.8319 27.7854 73.7279 28.1154C73.6227 28.4442 73.3312 28.7933 73.079 28.8902C72.8269 28.987 72.6201 29.225 72.6201 29.4187C72.6201 29.6135 72.3369 30.1313 71.9916 30.5701C71.5602 31.1201 71.3642 31.8446 71.3642 32.8968C71.3642 34.0447 71.2471 34.4249 70.8934 34.4249C70.6352 34.4249 70.4225 34.1989 70.4225 33.9239C70.4225 33.6489 70.1405 33.35 69.7952 33.2591C69.3697 33.1479 69.1654 32.8287 69.1618 32.2679C69.157 31.4477 67.9883 30.0284 67.3191 30.0284C67.1088 30.0284 66.9702 29.39 66.9702 28.4287C66.9702 27.0931 66.8674 26.8014 66.3428 26.6651C65.8708 26.5407 65.7154 26.2358 65.7154 25.4383C65.7154 24.3861 65.7011 24.3754 64.2802 24.3754C62.6849 24.3754 61.5915 25.0856 62.22 25.7145C62.4208 25.9154 62.5762 27.074 62.5762 28.3737C62.5762 30.1301 62.6885 30.7183 63.047 30.857C63.3672 30.979 63.5178 31.48 63.5178 32.4198C63.5178 33.4134 63.6947 33.9538 64.1452 34.34C64.5694 34.7035 64.7738 35.2666 64.7738 36.0737C64.7738 36.8473 64.9399 37.3339 65.2446 37.4511C65.5027 37.5503 65.7154 37.9521 65.7154 38.3443C65.7154 39.7276 66.1122 41.0189 66.5388 41.0189C66.8232 41.0189 66.9702 41.3944 66.9702 42.1177C66.9702 43.0073 67.0897 43.2166 67.5987 43.2166C68.1066 43.2166 68.2261 43.427 68.2261 44.3166C68.2261 45.0842 68.3683 45.4154 68.697 45.4154C68.9551 45.4154 69.1678 45.6724 69.1678 45.9869C69.1678 46.3014 69.4857 46.8561 69.874 47.2208C70.8109 48.1008 71.1957 48.6006 71.449 49.2618C71.5638 49.5643 71.8745 49.8118 72.1397 49.8118C72.411 49.8118 72.6201 50.0856 72.6201 50.4395C72.6201 50.7887 72.8293 51.0672 73.091 51.0672C73.3491 51.0672 73.5618 51.2705 73.5618 51.518C73.5618 51.7655 73.8438 52.0573 74.1892 52.1673C74.5345 52.2761 74.8165 52.569 74.8165 52.8165C74.8165 53.064 75.0998 53.2661 75.4439 53.2661C75.7988 53.2661 76.0725 53.4753 76.0725 53.7467C76.0725 54.011 76.3199 54.3182 76.621 54.4294C76.9233 54.5406 77.2842 54.8192 77.4216 55.0476C77.5603 55.2772 77.9845 55.4637 78.3657 55.4637C78.7481 55.4637 79.2357 55.747 79.452 56.0926C79.673 56.4477 80.1833 56.7203 80.6254 56.7203C81.1118 56.7203 81.4082 56.8985 81.4082 57.1914C81.4082 57.5166 81.7344 57.6625 82.4693 57.6625C83.2676 57.6625 83.5723 57.8179 83.6954 58.2902C83.8041 58.7051 84.1232 58.9179 84.6359 58.9179C85.0625 58.9179 85.5787 59.1212 85.7854 59.3699C85.991 59.6174 86.6076 59.9175 87.1573 60.0371C87.7058 60.1566 88.4348 60.4484 88.7741 60.6863C89.1589 60.9529 90.2464 61.1168 91.6397 61.1168C93.253 61.1168 93.9951 61.2495 94.2759 61.5878C94.8376 62.2658 102.973 62.2742 103.867 61.5974C104.296 61.2722 105.32 61.1335 107.341 61.1263C109.495 61.1192 110.302 60.9996 110.596 60.6457C110.842 60.348 111.534 60.1746 112.471 60.1746C114.083 60.1746 115.932 59.6545 115.932 59.2013C115.932 59.0459 116.498 58.9179 117.19 58.9179C118.06 58.9179 118.614 58.7242 118.986 58.2902C119.385 57.8239 119.912 57.6625 121.033 57.6625C122.085 57.6625 122.597 57.5202 122.723 57.1914C122.833 56.9045 123.308 56.7203 123.943 56.7203C125.293 56.7203 125.975 56.4453 125.975 55.9013C125.975 55.5605 126.595 55.4637 128.799 55.4637C131.101 55.4637 131.624 55.3764 131.624 54.9926C131.624 54.6411 132.001 54.5215 133.116 54.5179C135.053 54.5119 136.018 54.2405 136.018 53.7001C136.018 53.3725 136.549 53.2661 138.181 53.2661C139.815 53.2661 140.39 53.1501 140.526 52.795C140.659 52.4494 141.201 52.3239 142.558 52.3239C143.933 52.3239 144.613 52.1625 145.206 51.6962C145.843 51.194 146.479 51.0672 148.36 51.0672C150.992 51.0672 151.711 50.8915 151.711 50.2494C151.711 49.8931 152.649 49.8118 156.733 49.8118C160.987 49.8118 161.754 49.7401 161.754 49.3407C161.754 48.939 162.588 48.8696 167.37 48.8696C172.073 48.8696 173.016 48.9462 173.166 49.3407C173.313 49.7233 174.053 49.8118 177.087 49.8118C180.562 49.8118 180.838 49.856 180.99 50.4395C181.121 50.9393 181.001 51.0672 180.4 51.0672C179.937 51.0672 179.644 50.8855 179.644 50.5974C179.644 50.192 178.649 50.1263 172.572 50.1263C166.576 50.1263 165.474 50.1968 165.32 50.5974C165.173 50.98 164.418 51.0672 161.247 51.0672C157.742 51.0672 157.3 51.1306 156.817 51.6962C156.397 52.1864 155.891 52.3239 154.504 52.3239C153.31 52.3239 152.601 52.4781 152.339 52.795C152.072 53.1166 151.36 53.2661 150.1 53.2661C148.641 53.2661 148.139 53.3976 147.715 53.8938C147.237 54.4534 146.789 54.5215 143.653 54.5215C140.994 54.5215 140.068 54.6279 139.878 54.9543C139.723 55.221 138.867 55.4386 137.632 55.5259C136.193 55.6275 135.552 55.814 135.341 56.193C135.117 56.5924 134.602 56.7203 133.216 56.7203C131.973 56.7203 131.262 56.871 130.997 57.1914C130.776 57.4568 130.092 57.6625 129.428 57.6625C127.613 57.6625 126.289 58.0104 126.289 58.4863C126.289 58.8151 125.722 58.9179 123.932 58.9179C121.963 58.9179 121.486 59.022 121.038 59.5469C120.626 60.0275 120.112 60.1746 118.844 60.1746C116.915 60.1746 116.222 61.8043 117.963 62.2419C120.056 62.7668 154.572 62.2287 154.888 61.6668C155.321 60.8908 178.789 60.8131 179.64 61.5831C180.014 61.9226 181.314 62.108 184.372 62.2586C187.403 62.4081 188.659 62.585 188.84 62.8899C188.998 63.1566 189.673 63.3144 190.644 63.3144C191.763 63.3144 192.198 63.4375 192.198 63.752C192.198 64.3008 192.881 64.571 194.264 64.571C195.008 64.571 195.337 64.7157 195.337 65.0421C195.337 65.3697 195.666 65.5132 196.414 65.5132C197.216 65.5132 197.543 65.6734 197.691 66.1409C197.814 66.5307 198.166 66.7686 198.615 66.7686C199.014 66.7686 199.516 66.9815 199.731 67.2397C199.946 67.4992 200.599 67.7108 201.182 67.7108C201.879 67.7108 202.242 67.8615 202.242 68.1484C202.242 68.6554 202.91 68.9674 203.994 68.9674C204.411 68.9674 204.752 69.0858 204.752 69.2305C204.752 69.973 207.427 70.4656 209.068 70.0256C209.909 69.7996 210.118 68.0253 209.303 68.0253C209.041 68.0253 208.832 67.7467 208.832 67.3975C208.832 66.9791 208.623 66.7686 208.205 66.7686C207.787 66.7686 207.577 66.5594 207.577 66.1409C207.577 65.7918 207.368 65.5132 207.107 65.5132C206.792 65.5132 206.636 65.1987 206.636 64.571C206.636 63.5691 205.695 62.3722 204.909 62.3722C204.651 62.3722 204.438 62.1474 204.438 61.8724C204.438 61.5974 204.156 61.2985 203.811 61.2076C203.465 61.1168 203.183 60.8477 203.183 60.6086C203.183 60.3707 202.9 60.1746 202.556 60.1746C202.211 60.1746 201.928 59.9773 201.928 59.737C201.928 59.2647 201.27 58.9179 200.372 58.9179C199.996 58.9179 199.745 58.6023 199.62 57.9698C199.472 57.2285 199.223 56.9798 198.482 56.8315C197.96 56.7275 197.533 56.4573 197.533 56.2325C197.533 56.0077 197.286 55.7602 196.985 55.6801C196.683 55.6012 196.948 55.5211 197.575 55.5007C198.469 55.4721 198.751 55.6 198.88 56.0926C199 56.5493 199.308 56.7203 200.016 56.7203C200.669 56.7203 200.986 56.8746 200.986 57.1914C200.986 57.5202 201.318 57.6625 202.085 57.6625C202.974 57.6625 203.183 57.7821 203.183 58.2902C203.183 58.7087 203.393 58.9179 203.811 58.9179C204.16 58.9179 204.438 59.1284 204.438 59.389C204.438 59.6485 204.619 59.8601 204.84 59.8601C205.061 59.8601 205.483 60.1435 205.778 60.489C206.074 60.8346 206.67 61.1168 207.103 61.1168C207.586 61.1168 207.891 61.2949 207.891 61.5771C207.891 61.8915 208.385 62.1032 209.461 62.2455C210.849 62.4296 211.03 62.5408 211.03 63.2056C211.03 64.84 215.182 65.1509 215.368 63.5296C215.494 62.426 214.67 61.1168 213.846 61.1168C213.505 61.1168 213.226 60.9051 213.226 60.6457C213.226 60.3862 213.03 60.1746 212.791 60.1746C212.542 60.1746 212.267 59.7047 212.148 59.0758C212.035 58.4696 211.754 57.977 211.522 57.977C211.292 57.977 211.029 57.6936 210.939 57.348C210.848 57.0025 210.549 56.7203 210.275 56.7203C210 56.7203 209.774 56.5183 209.774 56.2708C209.774 56.0232 209.505 55.7351 209.175 55.6299C208.847 55.5259 208.498 55.2341 208.401 54.9806C208.304 54.7284 207.867 54.5215 207.43 54.5215C206.847 54.5215 206.636 54.3565 206.636 53.901C206.636 53.5602 206.247 53.0329 205.773 52.7292C205.297 52.4255 204.725 51.9281 204.499 51.6232C204.273 51.3171 203.885 51.0672 203.636 51.0672C203.387 51.0672 203.183 50.8556 203.183 50.5974C203.183 50.3379 202.917 50.1263 202.592 50.1263C202.264 50.1263 201.928 49.8453 201.837 49.4973C201.72 49.0466 201.409 48.8696 200.738 48.8696C200.068 48.8696 199.757 48.6927 199.64 48.2419C199.521 47.784 199.211 47.613 198.505 47.613C197.851 47.613 197.533 47.46 197.533 47.1419C197.533 46.8836 197.355 46.672 197.138 46.672C196.922 46.672 196.567 46.3886 196.352 46.0431C195.843 45.2276 197.402 45.1153 197.994 45.9247C198.216 46.2272 198.862 46.4496 199.597 46.4735L200.829 46.5142L200.924 44.527C201.007 42.7455 200.951 42.5207 200.374 42.37C200.013 42.2756 199.731 41.942 199.731 41.6108C199.731 41.2856 199.518 41.0189 199.26 41.0189C199.001 41.0189 198.789 40.8073 198.789 40.5478C198.789 40.286 198.51 40.0768 198.162 40.0768C197.743 40.0768 197.533 39.8675 197.533 39.449C197.533 39.1035 197.338 38.8213 197.097 38.8213C196.857 38.8213 196.568 38.4531 196.456 38.0047C196.343 37.5563 195.575 36.5316 194.748 35.7281C193.922 34.9247 193.155 34.0196 193.045 33.7182C192.935 33.4157 192.629 33.1682 192.365 33.1682C192.101 33.1682 191.885 32.9566 191.885 32.6972C191.885 32.4377 191.672 32.2261 191.414 32.2261C191.152 32.2261 190.943 31.9475 190.943 31.5983C190.943 31.1799 190.734 30.9706 190.316 30.9706C189.92 30.9706 189.687 30.7602 189.687 30.4063C189.687 29.7941 187.531 27.5152 186.953 27.5152C186.758 27.5152 186.508 27.1039 186.397 26.6005C186.287 26.0959 185.993 25.6057 185.745 25.5112C185.496 25.4156 185.293 25.1215 185.293 24.856C185.293 24.5918 185.082 24.3754 184.822 24.3754C184.564 24.3754 184.351 24.2355 184.351 24.0633C184.351 23.6424 181.65 20.9211 181.231 20.9211C181.048 20.9211 180.899 20.7191 180.899 20.4715C180.899 20.224 180.617 19.9323 180.272 19.8223C179.832 19.6824 179.644 19.3464 179.644 18.702C179.644 18.1113 179.483 17.7813 179.195 17.7813C178.948 17.7813 178.655 17.4979 178.546 17.1524C178.436 16.8069 178.145 16.5247 177.897 16.5247C177.65 16.5247 177.447 16.313 177.447 16.0536C177.447 15.445 176.329 14.3271 175.721 14.3271C175.462 14.3271 175.25 14.1704 175.25 13.9779C175.25 13.4961 173.924 12.1402 173.446 12.1342C173.218 12.1306 173.053 11.7217 173.053 11.1574C173.053 10.4495 172.883 10.1411 172.425 10.0215C172.078 9.93062 171.798 9.59345 171.798 9.26584C171.798 8.94062 171.586 8.67399 171.327 8.67399C171.068 8.67399 170.856 8.4767 170.856 8.23637C170.856 7.99605 170.633 7.71387 170.359 7.60866C169.522 7.28702 148.993 7.39344 148.123 7.72464C147.599 7.92311 147.317 7.92311 147.317 7.72464C147.317 7.55605 147.116 7.41855 146.871 7.41855C146.626 7.41855 146.335 7.00605 146.225 6.50267C146.114 5.99811 145.82 5.50788 145.571 5.41343C145.324 5.31777 145.12 5.02364 145.12 4.7582C145.12 4.04798 136.718 4.03842 136.446 4.74864C136.304 5.1181 135.666 5.21973 133.474 5.21973C130.892 5.21973 130.683 5.26636 130.683 5.84745C130.683 6.43572 130.474 6.47637 127.387 6.47637C124.745 6.47637 124.092 6.56484 124.092 6.92354C124.092 7.293 122.987 7.38866 117.789 7.47355C112.221 7.56322 111.44 7.63855 111.085 8.12518C110.779 8.54366 110.232 8.67399 108.775 8.67399C107.593 8.67399 106.771 8.82344 106.613 9.06616C106.473 9.28258 106.288 7.55366 106.202 5.21973L106.045 0.979924L100.183 0.895033C95.7087 0.830468 94.2604 0.904599 94.0632 1.20949ZM141.667 14.5136C141.667 14.7886 141.95 15.0875 142.296 15.1772C142.641 15.268 142.923 15.5371 142.923 15.7762C142.923 16.0153 143.148 16.2102 143.424 16.2102C143.699 16.2102 143.997 16.4936 144.087 16.8391C144.178 17.1847 144.431 17.4669 144.651 17.4669C144.873 17.4669 145.108 17.9463 145.177 18.543L145.302 19.6202L143.006 19.7207C137.838 19.9479 134.755 19.3955 136.804 18.6099C137.062 18.5095 137.273 18.2118 137.273 17.9475C137.273 17.6833 137.476 17.4669 137.724 17.4669C137.971 17.4669 138.259 17.1978 138.363 16.8678C138.467 16.5378 138.76 16.1899 139.012 16.093C139.264 15.9962 139.471 15.5693 139.471 15.1449C139.471 14.3928 139.863 14.1322 141.119 14.0485C141.427 14.0281 141.667 14.2314 141.667 14.5136ZM166.462 17.2947C166.462 17.7179 166.71 18.2082 167.012 18.3839C167.428 18.6266 167.094 18.7068 165.628 18.7139C163.849 18.7223 163.709 18.6733 163.861 18.0946C163.95 17.749 164.224 17.4669 164.469 17.4669C164.713 17.4669 164.994 17.2552 165.093 16.9958C165.402 16.1887 166.462 16.4195 166.462 17.2947ZM147.199 21.3802C147.296 21.6325 147.645 21.9255 147.973 22.0295C148.303 22.1335 148.573 22.4217 148.573 22.6692C148.573 22.9167 148.768 23.1199 149.007 23.1199C149.246 23.1199 149.515 23.4021 149.606 23.7477C149.695 24.0932 149.994 24.3754 150.269 24.3754C150.545 24.3754 150.77 24.587 150.77 24.8465C150.77 25.1059 150.975 25.3176 151.226 25.3176C151.5 25.3176 151.765 25.7588 151.889 26.4164C152.002 27.0214 152.274 27.5152 152.494 27.5152C152.714 27.5152 152.967 27.7985 153.058 28.1441C153.148 28.4896 153.446 28.7718 153.721 28.7718C153.997 28.7718 154.222 28.9834 154.222 29.2429C154.222 29.5024 154.433 29.714 154.693 29.714C154.952 29.714 155.164 29.9854 155.164 30.3166C155.164 31.2528 155.502 31.9116 155.982 31.9116C156.222 31.9116 156.418 32.195 156.418 32.5405C156.418 32.8897 156.629 33.1682 156.889 33.1682C157.148 33.1682 157.36 33.3703 157.36 33.6178C157.36 33.8653 157.643 34.1582 157.989 34.2671C159.775 34.835 158.525 35.2786 154.675 35.4448C151.678 35.5751 150.6 35.7365 150.178 36.1191C149.73 36.5245 148.855 36.6225 145.667 36.6225C142.752 36.6225 141.6 36.7349 141.286 37.0494C141.024 37.3112 139.846 37.5348 138.244 37.6281C136.243 37.744 135.56 37.9019 135.337 38.3C135.113 38.7018 134.58 38.8213 133.012 38.8213C131.493 38.8213 130.931 38.9397 130.796 39.2912C130.689 39.571 130.214 39.7647 129.629 39.7659C127.81 39.7731 126.289 40.1473 126.289 40.5885C126.289 40.9257 125.577 41.0189 123.014 41.0189C120.016 41.0189 119.723 41.0715 119.541 41.6467C119.367 42.1931 119.088 42.2696 117.402 42.2301C115.69 42.1907 115.609 42.1632 116.717 41.9946C117.796 41.8308 118.013 41.661 118.272 40.7834C118.438 40.2226 118.755 39.7623 118.978 39.7623C119.201 39.7623 119.384 39.5674 119.384 39.3283C119.384 39.0891 119.666 38.8201 120.011 38.7293C120.357 38.6396 120.64 38.3407 120.64 38.0657C120.64 37.7895 120.852 37.5647 121.111 37.5647C121.369 37.5647 121.582 37.3686 121.582 37.1307C121.582 36.8915 121.864 36.6213 122.209 36.5316C122.554 36.4408 122.836 36.1418 122.836 35.8668C122.836 35.5918 123.048 35.3659 123.307 35.3659C123.567 35.3659 123.778 35.1411 123.778 34.8661C123.778 34.5911 124.06 34.2922 124.405 34.2013C124.751 34.1104 125.034 33.8366 125.034 33.5927C125.034 33.3488 125.237 33.0702 125.485 32.9757C125.733 32.8801 126.025 32.4018 126.132 31.9116C126.24 31.4226 126.53 30.9443 126.779 30.8487C127.034 30.7506 127.23 30.2628 127.23 29.7236C127.23 28.9942 127.371 28.7718 127.833 28.7718C128.768 28.7718 129.427 28.4334 129.427 27.9528C129.427 27.7125 129.604 27.5152 129.82 27.5128C130.256 27.5104 131.624 25.2912 131.624 24.5858C131.624 24.3371 131.906 24.0609 132.252 23.97C132.666 23.8624 132.88 23.542 132.88 23.0279C132.88 22.5149 133.093 22.1945 133.508 22.0869C134.121 21.9255 134.135 22.0761 134.135 28.6439V35.3659H140.27H146.404L146.374 30.8917C146.309 20.9976 146.446 19.417 147.199 21.3802ZM160.812 22.1479C160.812 23.2204 160.733 23.3543 160.185 23.2108C159.713 23.0865 159.558 22.7816 159.558 21.9841C159.558 21.1304 159.681 20.9211 160.185 20.9211C160.706 20.9211 160.812 21.1304 160.812 22.1479ZM172.441 24.0609C172.601 24.0609 172.938 24.5559 173.19 25.1609C173.442 25.7647 173.797 26.2597 173.979 26.2597C174.16 26.2597 174.309 26.4761 174.309 26.7404C174.309 27.0046 174.545 27.3119 174.834 27.4231C175.122 27.5343 175.617 27.8834 175.933 28.1979C176.248 28.5135 176.718 28.7718 176.976 28.7718C177.235 28.7718 177.447 28.9834 177.447 29.2429C177.447 29.5047 177.726 29.714 178.075 29.714C178.583 29.714 178.703 29.9232 178.703 30.8128C178.703 31.5804 178.845 31.9116 179.174 31.9116C179.433 31.9116 179.644 32.1197 179.644 32.3719C179.644 33.0654 181.493 35.0323 182.347 35.2463C182.76 35.3503 183.097 35.6445 183.097 35.9015C183.097 36.1574 183.379 36.4408 183.724 36.5316C184.069 36.6213 184.351 36.8915 184.351 37.1307C184.351 37.3686 184.564 37.5647 184.822 37.5647C185.152 37.5647 185.293 37.8959 185.293 38.6635C185.293 39.5531 185.413 39.7623 185.922 39.7623C186.34 39.7623 186.549 39.9727 186.549 40.3912C186.549 40.9424 186.34 41.0189 184.822 41.0189C183.563 41.0189 183.097 40.9018 183.097 40.5849C183.097 40.0899 182.155 39.7731 180.664 39.7671C179.968 39.7647 179.644 39.6128 179.644 39.2912C179.644 38.9301 179.243 38.8213 177.918 38.8213C176.658 38.8213 176.192 38.7029 176.192 38.3861C176.192 37.8122 175.207 37.5742 172.817 37.5695C169.847 37.5623 167.838 34.6341 170.621 34.3663L171.641 34.2671L171.773 28.1441C171.846 24.7759 171.961 22.4791 172.029 23.041C172.096 23.6018 172.282 24.0609 172.441 24.0609ZM114.914 42.6677C114.837 42.9009 114.091 43.0994 113.083 43.1556C111.502 43.2441 111.425 43.2166 112.009 42.773C112.788 42.1799 115.101 42.0962 114.914 42.6677ZM108.713 43.8455C108.367 44.191 107.838 44.4565 107.536 44.4373C107.013 44.4027 107.013 44.3931 107.536 44.2568C107.838 44.1779 108.085 43.9112 108.085 43.6649C108.085 43.4186 108.367 43.2166 108.713 43.2166H109.341L108.713 43.8455ZM193.139 43.6876C193.139 43.9471 193.316 44.1707 193.533 44.1838C193.821 44.2018 193.827 44.2484 193.552 44.3608C193.346 44.4445 192.887 44.2209 192.531 43.8646C191.891 43.2237 191.891 43.2166 192.512 43.2166C192.861 43.2166 193.139 43.427 193.139 43.6876ZM195.574 45.0232C195.655 45.2683 195.4 45.4154 194.893 45.4154C194.364 45.4154 194.081 45.2432 194.081 44.9228C194.081 44.3321 195.375 44.4194 195.574 45.0232ZM155.591 80.7435C155.474 81.0484 154.988 81.2146 154.214 81.2146C152.741 81.2146 152.025 81.4704 152.025 81.9965C152.025 82.2165 151.742 82.4712 151.397 82.5621C150.94 82.6816 150.77 82.9901 150.77 83.6968C150.77 84.3185 150.612 84.6688 150.332 84.6688C149.693 84.6688 149.514 85.3874 149.514 87.9665C149.514 90.5443 149.693 91.2629 150.332 91.2629C150.612 91.2629 150.77 91.6132 150.77 92.235C150.77 92.9416 150.94 93.2513 151.397 93.3708C151.745 93.4617 152.025 93.7989 152.025 94.1265C152.025 94.4517 152.221 94.7171 152.462 94.7171C152.703 94.7171 152.98 94.93 153.079 95.1882C153.183 95.4585 153.652 95.6593 154.175 95.6593C154.827 95.6593 155.137 95.8411 155.254 96.2882C155.374 96.745 155.682 96.916 156.39 96.916C157.068 96.916 157.36 97.0666 157.36 97.4157C157.36 97.6919 157.643 97.9909 157.989 98.0805C158.334 98.1714 158.616 98.4404 158.616 98.6796C158.616 98.9187 158.898 99.1136 159.243 99.1136C159.592 99.1136 159.872 99.3228 159.872 99.5847C159.872 99.8441 160.067 100.056 160.306 100.056C160.545 100.056 160.814 100.339 160.904 100.685C160.994 101.029 161.293 101.312 161.568 101.312C161.844 101.312 162.068 101.508 162.068 101.75C162.068 101.99 162.28 102.269 162.539 102.368C162.798 102.467 163.01 102.75 163.01 102.996C163.01 103.242 162.798 103.524 162.539 103.624C162.28 103.723 162.068 103.944 162.068 104.114C162.068 104.511 160.565 106.022 160.171 106.022C160.006 106.022 159.872 106.235 159.872 106.493C159.872 107.127 157.5 107.154 157.258 106.523C157.165 106.28 156.656 105.986 156.127 105.87C155.596 105.754 155.164 105.458 155.164 105.213C155.164 104.968 154.968 104.767 154.727 104.767C154.478 104.767 154.204 104.297 154.086 103.668C153.963 103.009 153.696 102.568 153.424 102.568C153.079 102.568 152.966 102.143 152.966 100.841V99.1136H151.546C149.711 99.1136 149.514 99.6026 149.514 104.145C149.514 108.37 150.012 109.163 152.667 109.163C153.782 109.163 154.222 109.286 154.222 109.597C154.222 110.203 155.225 110.41 158.198 110.415C161.029 110.42 161.754 110.254 161.754 109.601C161.754 109.279 162.214 109.163 163.481 109.163C164.77 109.163 165.206 109.048 165.206 108.714C165.206 108.466 165.49 108.173 165.835 108.064C166.18 107.954 166.462 107.677 166.462 107.449C166.462 107.219 166.674 106.95 166.933 106.851C167.323 106.701 167.404 105.855 167.404 101.94C167.404 98.0255 167.323 97.179 166.933 97.0296C166.674 96.9303 166.462 96.6613 166.462 96.4317C166.462 96.2034 166.18 95.926 165.835 95.8172C165.49 95.7072 165.206 95.4154 165.206 95.1679C165.206 94.9204 164.946 94.7171 164.628 94.7171C164.309 94.7171 163.793 94.435 163.481 94.0894C163.168 93.7439 162.651 93.4617 162.334 93.4617C162.015 93.4617 161.754 93.2501 161.754 92.9906C161.754 92.6618 161.423 92.5195 160.656 92.5195C159.767 92.5195 159.558 92.4 159.558 91.8918C159.558 91.5463 159.36 91.2629 159.12 91.2629C158.88 91.2629 158.602 91.0513 158.502 90.7918C158.403 90.5335 158.106 90.3207 157.842 90.3207C157.576 90.3207 157.36 90.1091 157.36 89.8496C157.36 89.5914 157.239 89.3785 157.092 89.3785C156.945 89.3785 156.451 89.033 155.994 88.6085C155.038 87.7225 154.785 85.611 155.634 85.611C155.894 85.611 156.105 85.5046 156.105 85.3755C156.105 84.6712 158.4 83.3201 158.759 83.8127C158.961 84.0877 159.505 84.4082 159.969 84.5254C160.434 84.6413 160.812 84.9331 160.812 85.1734C160.812 85.4137 161.01 85.611 161.25 85.611C161.73 85.611 162.068 86.271 162.068 87.206C162.068 87.5384 162.273 87.8086 162.522 87.8086C162.85 87.8086 163.004 88.2714 163.072 89.4574L163.166 91.1063L164.314 91.2019C166.158 91.3562 166.462 90.6232 166.462 86.0379C166.462 81.0352 166.557 81.2146 163.918 81.2146C162.205 81.2146 161.754 81.1165 161.754 80.7435C161.754 80.3573 161.213 80.2724 158.763 80.2724C156.393 80.2724 155.734 80.3704 155.591 80.7435ZM1.27027 81.4238C0.602264 82.0922 1.07907 83.4122 1.98846 83.4122C2.56326 83.4122 3.21931 83.7159 3.71404 84.2121L4.5135 85.0108V95.3604C4.5135 107.026 4.52664 106.964 2.15934 106.964C1.11372 106.964 1.06114 107.017 1.06114 108.064V109.163H7.18074H13.3015V108.064C13.3015 107.017 13.2489 106.964 12.2033 106.964C11.1888 106.964 11.1039 106.891 11.1039 106.013C11.1039 105.457 10.9091 104.985 10.6331 104.88C10.2519 104.733 10.1623 103.999 10.1623 101.004V97.3093L11.2509 97.8187C12.0994 98.2168 12.3419 98.5193 12.3491 99.1925C12.3563 99.7461 12.5284 100.056 12.8307 100.056C13.09 100.056 13.3015 100.282 13.3015 100.557C13.3015 100.832 13.5835 101.131 13.9289 101.222C14.371 101.336 14.5563 101.65 14.5563 102.275C14.5563 102.765 14.7367 103.278 14.9554 103.417C15.1753 103.554 15.5254 104.056 15.7334 104.531C15.9425 105.006 16.2568 105.394 16.4336 105.394C16.6093 105.394 16.7539 105.748 16.7539 106.18C16.7539 106.641 16.9343 106.964 17.1901 106.964C17.4303 106.964 17.7242 107.352 17.8425 107.825C18.1616 109.096 18.3934 109.152 23.2666 109.158L27.7383 109.163V108.064C27.7383 107.126 27.6332 106.964 27.0153 106.964C26.6174 106.964 25.7522 106.47 25.0926 105.865C24.433 105.26 23.7697 104.767 23.6192 104.767C23.4686 104.767 23.3443 104.55 23.3443 104.286C23.3443 104.021 23.1459 103.728 22.9022 103.634C22.6584 103.541 22.374 103.124 22.27 102.708C22.166 102.292 21.6773 101.743 21.1849 101.488C20.4895 101.128 20.2433 100.73 20.0784 99.6923C19.9445 98.8565 19.4522 97.8569 18.7591 97.0092C17.7625 95.792 17.7171 95.6593 18.3026 95.6593C18.6695 95.6593 18.9503 95.4549 18.9503 95.1882C18.9503 94.93 19.1761 94.7171 19.451 94.7171C19.7258 94.7171 20.0246 94.435 20.1154 94.0894C20.205 93.7439 20.4751 93.4617 20.7141 93.4617C21.0009 93.4617 21.1479 93.0887 21.1479 92.3629C21.1479 91.6324 21.2949 91.2629 21.5853 91.2629C22.6452 91.2629 22.8125 86.4994 21.7753 85.8513C21.3558 85.5895 21.1479 85.1196 21.1479 84.4357C21.1479 83.7709 20.9949 83.4122 20.7105 83.4122C20.4703 83.4122 20.1919 83.2006 20.0927 82.9411C19.9935 82.6828 19.7294 82.47 19.5072 82.47C19.2837 82.47 18.9252 82.1878 18.7101 81.8423C18.3134 81.2074 1.88091 80.8128 1.27027 81.4238ZM29.207 81.419C28.2438 82.3827 29.0253 83.4122 30.7198 83.4122H32.4466V95.1882V106.964H30.7198H28.9943V108.064V109.163H40.146H51.2966L51.2093 105.315L51.1209 101.469L49.7622 101.371C48.6114 101.288 48.3784 101.372 48.235 101.921C48.1418 102.277 47.8848 102.568 47.6626 102.568C47.4403 102.568 47.1105 102.956 46.9288 103.432C46.2501 105.213 45.6179 105.602 43.1287 105.781C41.384 105.905 40.7077 106.088 40.3946 106.516C40.0193 107.03 39.9787 107.034 39.9787 106.554C39.9787 106.261 39.7672 106.022 39.5079 106.022C39.1111 106.022 39.037 105.307 39.037 101.469V96.916H40.146C40.8415 96.916 41.3219 97.0917 41.4342 97.387C41.5346 97.6453 41.7903 97.8581 42.0042 97.8581C42.6699 97.8581 43.3773 98.9091 43.4848 100.056C43.6103 101.393 45.6287 102.002 45.6287 100.704C45.6287 100.265 45.8306 100.056 46.256 100.056C47.0782 100.056 47.2467 90.0708 46.4353 89.3977C45.4984 88.6193 43.5984 89.1155 43.4992 90.1641C43.3725 91.4972 42.7893 92.5195 42.156 92.5195C41.8584 92.5195 41.5346 92.7312 41.4342 92.9906C41.3219 93.2859 40.8415 93.4617 40.146 93.4617H39.037V89.0653V84.6688H41.3577C43.1311 84.6688 43.7203 84.78 43.8589 85.1399C43.9581 85.3994 44.3811 85.611 44.7993 85.611C45.4183 85.611 45.5964 85.8131 45.7649 86.7098C45.8784 87.3148 46.1425 87.8086 46.3516 87.8086C46.5608 87.8086 46.9097 88.092 47.1248 88.4375C48.4847 90.6148 50.0693 88.3981 49.9558 84.4787L49.8649 81.3712L39.6429 81.2887C34.0204 81.2433 29.3253 81.3019 29.207 81.419ZM61.4445 81.6594C61.0513 82.684 61.4588 83.2532 62.6574 83.3536C63.4246 83.417 63.8321 83.6071 63.8321 83.9024C63.8321 84.1511 64.0795 84.3639 64.3806 84.3747C64.8025 84.3902 64.7654 84.4608 64.2241 84.6784C63.623 84.9199 63.5178 85.1973 63.5178 86.5424C63.5178 87.7381 63.4031 88.1231 63.047 88.1231C62.7184 88.1231 62.5762 88.4543 62.5762 89.2219C62.5762 89.9524 62.4292 90.3207 62.1388 90.3207C61.5903 90.3207 61.3214 91.0046 61.3214 92.3976C61.3214 93.0707 61.1434 93.5502 60.8506 93.6614C60.5638 93.7714 60.3797 94.2473 60.3797 94.8714C60.3797 95.6366 60.2184 95.9427 59.7524 96.0647C59.1895 96.2117 59.1238 96.4927 59.1238 98.7704C59.1238 100.821 59.033 101.312 58.653 101.312C58.3279 101.312 58.1821 101.64 58.1821 102.374C58.1821 103.173 58.0268 103.478 57.5548 103.601C57.17 103.703 56.9274 104.03 56.9274 104.447C56.9274 105.538 55.3261 106.906 53.9124 107.022C52.7855 107.114 52.6899 107.195 52.6899 108.064V109.005L58.5514 109.091C64.2408 109.174 64.4189 109.157 64.6196 108.527C64.9351 107.529 64.2396 106.964 62.6945 106.964H61.3214V105.238C61.3214 103.896 61.4278 103.51 61.8018 103.51C62.0659 103.51 62.3634 103.298 62.4626 103.039C62.7626 102.257 71.1527 102.357 71.9474 103.153C72.932 104.137 73.0467 106.964 72.1027 106.964C71.467 106.964 71.3642 107.119 71.3642 108.07V109.176L77.4061 109.091L83.448 109.005V108.064C83.448 107.164 83.3811 107.117 81.9734 107.026L80.5 106.932L80.2861 105.51C80.169 104.728 79.8798 104.013 79.642 103.923C79.4053 103.832 79.2106 103.344 79.2106 102.839C79.2106 102.333 79.0098 101.843 78.7636 101.749C78.5175 101.654 78.2223 101.023 78.1076 100.345C77.9809 99.5918 77.7276 99.1136 77.4575 99.1136C77.1838 99.1136 77.0118 98.7824 77.0094 98.2503C77.0034 96.9052 76.6688 95.9738 76.192 95.9738C75.9183 95.9738 75.7582 95.6235 75.7582 95.022C75.7582 94.4649 75.5622 93.995 75.2874 93.8886C74.9934 93.7762 74.8165 93.2967 74.8165 92.614C74.8165 91.783 74.666 91.4793 74.1892 91.3538C73.6395 91.2103 73.5618 90.9257 73.5618 89.0617C73.5618 87.4607 73.4447 86.8892 73.091 86.7529C72.797 86.6405 72.6201 86.161 72.6201 85.4759C72.6201 84.8004 72.3895 84.1631 72.0191 83.8175C71.6892 83.5078 71.3714 82.8311 71.3128 82.3134L71.2077 81.3712L66.4145 81.2851C62.434 81.2122 61.5915 81.2756 61.4445 81.6594ZM84.8605 82.3134C84.8605 83.3536 84.9179 83.4122 85.9217 83.4122C86.7199 83.4122 87.0247 83.5688 87.1477 84.0411C87.2386 84.3867 87.5373 84.6688 87.8122 84.6688C88.6857 84.6688 88.5602 105.703 87.6843 105.931C87.3401 106.022 87.0569 106.291 87.0569 106.53C87.0569 106.817 86.6841 106.964 85.9587 106.964C84.9119 106.964 84.8605 107.017 84.8605 108.064V109.163H95.349H105.839L106.051 108.192C106.584 105.766 105.897 101.678 104.922 101.464C103.814 101.22 102.75 101.525 102.75 102.085C102.75 102.313 102.551 102.577 102.309 102.671C102.066 102.764 101.772 103.273 101.656 103.803C101.513 104.455 101.257 104.767 100.864 104.767C100.545 104.767 100.093 104.957 99.8614 105.189C99.6283 105.422 98.9053 105.712 98.2529 105.834C97.6004 105.958 96.9886 106.261 96.893 106.511C96.6671 107.102 94.9033 107.119 94.9033 106.53C94.9033 106.291 94.6213 106.022 94.2759 105.931C93.4 105.703 93.2745 84.6688 94.1481 84.6688C94.4229 84.6688 94.7205 84.3926 94.8089 84.0567C94.9332 83.5796 95.2905 83.423 96.4269 83.35C97.6924 83.2675 97.8992 83.1563 97.9912 82.5059C98.1585 81.3222 97.6303 81.2241 91.059 81.2194L84.8605 81.2146V82.3134ZM122.836 82.3134C122.836 83.3512 122.895 83.4122 123.89 83.4122H124.943L125.224 86.6309C125.378 88.4017 125.505 92.2529 125.505 95.1882C125.505 98.1248 125.378 101.976 125.224 103.746L124.943 106.964H123.89C122.895 106.964 122.836 107.026 122.836 108.064V109.163H133.325C139.093 109.163 144.037 109.077 144.309 108.972C145.247 108.612 145.012 102.87 144.021 101.94C142.966 100.948 140.98 101.327 140.728 102.568C140.54 103.494 139.501 104.767 138.931 104.767C138.71 104.767 138.529 104.962 138.529 105.201C138.529 105.513 137.958 105.672 136.507 105.764C135.188 105.849 134.279 106.079 133.893 106.429C133.164 107.089 132.88 107.107 132.88 106.493C132.88 106.235 132.597 105.74 132.252 105.394C131.691 104.834 131.624 104.348 131.624 100.841V96.916H133.203C134.299 96.916 134.837 97.0558 134.958 97.3751C135.055 97.6274 135.397 97.9167 135.717 98.0184C136.155 98.1582 136.323 98.5696 136.394 99.6791L136.489 101.155L137.979 101.251L139.471 101.347V95.1882V89.0306L137.979 89.1263L136.489 89.2219L136.394 90.8707C136.314 92.2625 136.204 92.5195 135.689 92.5195C135.352 92.5195 135.077 92.7312 135.077 92.9906C135.077 93.3517 134.675 93.4617 133.35 93.4617H131.624V89.0653V84.6688H134.449C136.751 84.6688 137.273 84.7561 137.273 85.1399C137.273 85.3994 137.539 85.611 137.862 85.611C138.266 85.611 138.51 85.9087 138.64 86.5592C138.787 87.2933 139.038 87.5504 139.75 87.6926C140.288 87.8003 140.735 88.1231 140.826 88.471C141 89.1382 141.973 89.2614 142.547 88.6886C142.795 88.4399 142.923 87.1044 142.923 84.7633V81.2146H132.88H122.836V82.3134ZM172.18 85.0574C172.268 88.8501 172.28 88.9098 173.019 89.0139C173.819 89.1274 175.25 87.8899 175.25 87.0865C175.25 86.5795 176.235 85.611 176.75 85.611C176.944 85.611 177.215 85.4137 177.354 85.1722C177.503 84.9128 178.272 84.6892 179.252 84.6234L180.9 84.5122V95.2672C180.899 104.618 180.838 106.022 180.428 106.022C180.17 106.022 179.957 106.235 179.957 106.493C179.957 106.834 179.61 106.964 178.703 106.964C177.477 106.964 177.447 106.991 177.447 108.064V109.163H184.17C191.365 109.163 191.885 109.097 191.885 108.198C191.885 107.382 190.938 106.964 189.08 106.964C187.73 106.964 187.491 106.876 187.491 106.37C187.491 106.044 187.279 105.694 187.02 105.595C186.614 105.44 186.549 103.951 186.549 94.8511C186.549 85.348 186.599 84.3066 187.045 84.4775C187.319 84.5827 188.307 84.6688 189.243 84.6688C190.545 84.6688 190.943 84.7788 190.943 85.1399C190.943 85.4018 191.222 85.611 191.57 85.611C191.982 85.611 192.198 85.8202 192.198 86.216C192.198 86.5496 192.388 87.0111 192.62 87.2431C192.851 87.475 193.209 87.9796 193.416 88.3646C193.693 88.8835 194.073 89.0653 194.885 89.0653C196.352 89.0653 196.638 88.2462 196.525 84.3843L196.435 81.3712L184.264 81.2887L172.092 81.2074L172.18 85.0574ZM204.804 81.486C204.012 81.9965 204.499 83.2448 205.538 83.362C206.691 83.4911 207.806 84.5134 207.092 84.7872C206.778 84.908 206.636 85.4448 206.636 86.5066C206.636 87.7859 206.528 88.0777 206.008 88.214C205.547 88.3347 205.38 88.642 205.38 89.3726C205.38 89.919 205.168 90.5778 204.909 90.8372C204.58 91.166 204.438 91.9719 204.438 93.5131C204.438 95.4549 204.363 95.7382 203.811 95.8829C203.303 96.0156 203.183 96.311 203.183 97.4337C203.183 98.3759 203.033 98.878 202.713 99C202.427 99.11 202.242 99.5847 202.242 100.21C202.242 100.975 202.08 101.281 201.614 101.403C201.156 101.523 200.986 101.831 200.986 102.549C200.986 103.131 200.795 103.603 200.515 103.711C200.257 103.81 200.044 104.138 200.044 104.438C200.044 104.738 199.762 105.239 199.417 105.551C199.071 105.864 198.789 106.31 198.789 106.542C198.789 106.816 198.402 106.964 197.691 106.964C196.644 106.964 196.592 107.017 196.592 108.064V109.163H202.085H207.577V108.064C207.577 107.017 207.525 106.964 206.478 106.964H205.38V105.194C205.38 102.673 205.554 102.591 210.918 102.579C214.58 102.57 215.388 102.65 215.537 103.039C215.637 103.298 215.934 103.51 216.198 103.51C216.572 103.51 216.679 103.896 216.679 105.238V106.964H215.58C214.534 106.964 214.482 107.016 214.482 108.07V109.176L220.524 109.091L226.565 109.005V108.064C226.565 107.231 226.448 107.11 225.545 107.023C224.94 106.964 224.525 106.75 224.525 106.494C224.525 106.259 224.243 105.975 223.898 105.865C223.465 105.728 223.27 105.391 223.27 104.779C223.27 104.291 223.075 103.817 222.839 103.726C222.601 103.636 222.313 103.054 222.197 102.436C222.069 101.758 221.805 101.312 221.529 101.312C221.217 101.312 221.073 100.966 221.073 100.214C221.073 99.3228 220.953 99.1136 220.445 99.1136C219.902 99.1136 219.818 98.9043 219.818 97.5437C219.818 96.3576 219.702 95.9738 219.347 95.9738C218.977 95.9738 218.876 95.5386 218.876 93.9436C218.876 92.235 218.777 91.8607 218.248 91.5773C217.81 91.343 217.62 90.9197 217.62 90.176C217.62 89.589 217.43 88.9194 217.198 88.6874C216.965 88.4543 216.676 87.7381 216.555 87.0948C216.422 86.381 216.159 85.9243 215.88 85.9243C215.568 85.9243 215.424 85.5799 215.424 84.841C215.424 84.236 215.228 83.6465 214.98 83.5067C214.736 83.3691 214.489 82.8311 214.431 82.3134L214.324 81.3712L209.774 81.2935C207.272 81.2504 205.035 81.3365 204.804 81.486ZM226.791 85.061L226.879 88.9086L228.202 89.0043C229.453 89.0952 229.549 89.0402 229.99 87.9832C230.247 87.3698 230.605 86.8665 230.787 86.8665C230.967 86.8665 231.117 86.5843 231.117 86.2387C231.117 85.8896 231.326 85.611 231.587 85.611C231.846 85.611 232.058 85.3994 232.058 85.1399C232.058 84.7741 232.473 84.6688 233.915 84.6688C234.937 84.6688 235.996 84.5827 236.269 84.4775C237.137 84.1451 237.009 104.523 236.138 105.394C235.793 105.74 235.511 106.235 235.511 106.493C235.511 106.848 235.129 106.964 233.967 106.964C231.953 106.964 231.43 107.191 231.43 108.064C231.43 109.11 231.786 109.163 238.988 109.163H245.553V108.064C245.553 107.017 245.501 106.964 244.455 106.964C243.725 106.964 243.357 106.817 243.357 106.527C243.357 106.286 243.144 106.009 242.886 105.909C242.48 105.753 242.415 104.268 242.415 95.199V84.6688H244.107C245.323 84.6688 245.851 84.8016 245.981 85.1399C246.08 85.3994 246.342 85.6158 246.563 85.6206C247.079 85.6337 247.905 86.7852 248.17 87.8624C248.464 89.0521 250.151 89.4276 250.921 88.4758C251.218 88.1087 251.614 87.8086 251.802 87.8086C252.403 87.8086 252.254 81.6378 251.648 81.4047C251.375 81.3007 245.65 81.2146 238.927 81.2146H226.703L226.791 85.061ZM254.656 82.3098V83.4122H256.381H258.108V95.1882V106.964H256.381H254.656V108.064V109.163H265.797H276.939V105.428C276.939 101.402 276.901 101.312 275.163 101.312C274.29 101.312 272.545 102.864 272.545 103.64C272.545 103.912 272.263 104.31 271.917 104.525C271.572 104.742 271.29 105.076 271.29 105.271C271.29 105.49 270.37 105.685 268.885 105.781C267.037 105.899 266.383 106.068 266.061 106.51C265.683 107.026 265.64 107.03 265.64 106.554C265.64 106.261 265.429 106.022 265.169 106.022C264.773 106.022 264.698 105.307 264.698 101.469V96.916H265.763C266.42 96.916 266.897 97.0965 267.01 97.387C267.109 97.6453 267.384 97.8581 267.621 97.8581C268.328 97.8581 269.036 98.8804 269.146 100.056C269.269 101.363 271.29 102.007 271.29 100.741C271.29 100.385 271.564 100.058 271.945 99.9577C272.804 99.7329 272.778 89.9226 271.917 89.3642C270.775 88.6217 269.256 89.1466 269.146 90.3207C269.036 91.4972 268.328 92.5195 267.621 92.5195C267.384 92.5195 267.109 92.7312 267.01 92.9906C266.897 93.2812 266.42 93.4617 265.763 93.4617H264.698V89.0653V84.6688H267.019C268.791 84.6688 269.382 84.78 269.52 85.1399C269.619 85.3994 270.058 85.611 270.495 85.611C271.174 85.611 271.29 85.7521 271.29 86.5819C271.29 87.2742 271.462 87.5994 271.889 87.7106C272.217 87.7967 272.558 88.1362 272.644 88.4662C272.864 89.3092 274.162 89.2327 275.013 88.3252C275.648 87.6496 275.7 87.3208 275.617 84.4787L275.526 81.3712L265.09 81.2887L254.656 81.2062V82.3098ZM14.3555 85.1399C14.6136 85.3994 14.9769 85.611 15.1621 85.611C15.3474 85.611 15.4979 85.8824 15.4979 86.2136C15.4979 87.1486 15.8361 87.8086 16.3165 87.8086C16.9534 87.8086 16.8507 88.654 16.1265 89.3785C15.7812 89.7241 15.4979 90.2896 15.4979 90.6352C15.4979 90.9843 15.2888 91.2629 15.0271 91.2629C14.7666 91.2629 14.5563 91.5427 14.5563 91.8918C14.5563 92.3808 14.3472 92.5195 13.6051 92.5195C13.0494 92.5195 12.5786 92.7156 12.4734 92.9906C12.3623 93.2812 11.8843 93.4617 11.2282 93.4617H10.1623V89.0653V84.6688H12.0241C13.2585 84.6688 14.0424 84.8267 14.3555 85.1399ZM211.771 93.2046C212.068 93.3708 212.285 93.8874 212.285 94.429C212.285 94.9718 212.483 95.4417 212.755 95.5457C213.043 95.6569 213.226 96.1316 213.226 96.7665C213.226 97.338 213.403 97.8773 213.619 97.9634C213.834 98.0506 212.387 98.1224 210.401 98.1224C208.416 98.1224 206.969 98.0506 207.184 97.9634C207.401 97.8773 207.577 97.393 207.577 96.8897C207.577 96.3863 207.859 95.6916 208.205 95.3461C208.556 94.9933 208.832 94.2987 208.832 93.7654C208.832 93.2094 209.028 92.7383 209.303 92.6331C209.593 92.5219 209.774 92.0437 209.774 91.3872C209.774 89.2087 210.845 88.9421 211.064 91.0656C211.192 92.3055 211.425 93.0109 211.771 93.2046ZM68.2261 92.1238C68.2261 93.103 68.3516 93.4617 68.697 93.4617C69.0256 93.4617 69.1678 93.7929 69.1678 94.5605C69.1678 95.4501 69.2873 95.6593 69.7952 95.6593C70.3186 95.6593 70.4225 95.8686 70.4225 96.916V98.1714L66.8925 98.1523C64.4583 98.1379 63.5812 98.0435 64.0675 97.8486C64.5742 97.6441 64.7738 97.3046 64.7738 96.6457C64.7738 96.1185 64.9745 95.6498 65.2446 95.5457C65.5768 95.419 65.7154 94.9001 65.7154 93.7857C65.7154 92.6439 65.8361 92.2051 66.1528 92.2051C66.6332 92.2051 66.9702 91.5451 66.9702 90.6065C66.9702 90.0804 67.0514 90.0529 67.5987 90.3936C68.066 90.6866 68.2261 91.1266 68.2261 92.1238ZM64.665 124.182C64.0245 124.891 64.0161 125.765 64.6411 126.591C65.0845 127.176 65.1036 127.13 64.9124 125.926C64.7331 124.802 64.8024 124.566 65.437 124.121C65.9556 123.757 66.0261 123.608 65.676 123.608C65.4059 123.608 64.9506 123.866 64.665 124.182ZM77.0966 123.834C77.5734 123.906 78.2797 123.903 78.6656 123.829C79.0516 123.755 78.6621 123.695 77.7981 123.698C76.9353 123.7 76.6198 123.761 77.0966 123.834ZM95.453 123.824C95.0861 123.92 94.9176 124.249 94.9463 124.808C94.9834 125.533 95.0073 125.553 95.1232 124.953C95.2248 124.433 95.5498 124.208 96.415 124.063C97.0507 123.957 97.7127 123.823 97.8848 123.764C98.3592 123.603 96.084 123.659 95.453 123.824ZM100.318 123.824C100.619 123.903 101.114 123.903 101.416 123.824C101.718 123.745 101.471 123.681 100.866 123.681C100.263 123.681 100.016 123.745 100.318 123.824ZM144.422 123.839C145.16 123.904 146.291 123.904 146.934 123.836C147.575 123.769 146.972 123.714 145.59 123.715C144.21 123.717 143.684 123.772 144.422 123.839ZM157.753 123.824C158.055 123.903 158.549 123.903 158.851 123.824C159.154 123.745 158.906 123.681 158.302 123.681C157.698 123.681 157.451 123.745 157.753 123.824ZM160.107 123.932C160.496 124.088 160.812 124.306 160.812 124.416C160.812 124.527 160.594 124.533 160.326 124.43C160.046 124.323 159.921 124.375 160.031 124.554C160.284 124.965 161.754 124.955 161.754 124.543C161.754 124.366 161.392 124.083 160.95 123.914C159.938 123.53 159.148 123.546 160.107 123.932ZM172.504 123.824C172.807 123.903 173.3 123.903 173.602 123.824C173.905 123.745 173.657 123.681 173.053 123.681C172.449 123.681 172.202 123.745 172.504 123.824ZM181.138 123.83C181.529 123.906 182.094 123.902 182.394 123.824C182.694 123.745 182.375 123.684 181.684 123.687C180.993 123.69 180.749 123.755 181.138 123.83ZM188.51 123.932C187.627 124.287 187.59 124.864 188.45 124.864C188.806 124.864 189.014 124.732 188.915 124.569C188.815 124.408 188.983 124.129 189.288 123.951C189.968 123.555 189.477 123.543 188.51 123.932ZM191.187 123.839C191.925 123.904 193.055 123.904 193.698 123.836C194.34 123.769 193.736 123.714 192.356 123.715C190.974 123.717 190.448 123.772 191.187 123.839ZM199.809 123.932C198.699 124.379 198.831 126.115 200.044 127.013C200.563 127.396 200.986 127.579 200.986 127.42C200.986 127.261 200.774 127.048 200.515 126.949C199.716 126.642 199.894 124.405 200.75 123.992C201.611 123.577 200.819 123.527 199.809 123.932ZM210.018 123.839C210.756 123.904 211.885 123.904 212.528 123.836C213.171 123.769 212.568 123.714 211.186 123.715C209.805 123.717 209.279 123.772 210.018 123.839ZM141.023 124.413C140.65 124.862 140.685 124.911 141.303 124.815C141.69 124.756 142.011 124.569 142.017 124.401C142.036 123.872 141.466 123.879 141.023 124.413ZM152.725 124.291C151.852 125.162 152.892 127.393 153.969 126.963C154.235 126.855 154.187 126.789 153.83 126.773C153.528 126.76 153.28 126.592 153.28 126.401C153.28 126.21 153.5 126.137 153.768 126.241C154.046 126.347 154.173 126.294 154.063 126.116C153.958 125.947 153.651 125.807 153.381 125.807C153.029 125.807 152.979 125.694 153.203 125.413C153.67 124.83 153.225 123.788 152.725 124.291ZM170.978 124.372C170.654 125.217 171.019 126.524 171.706 126.977C172.381 127.423 172.392 127.411 172.127 126.487C171.977 125.966 171.944 125.45 172.053 125.343C172.161 125.234 172.001 125.24 171.696 125.357C171.32 125.502 171.173 125.432 171.235 125.138C171.285 124.902 171.529 124.625 171.775 124.526C172.136 124.381 172.118 124.306 171.684 124.14C171.357 124.013 171.08 124.105 170.978 124.372ZM177.208 124.587C177.253 124.998 177.137 125.308 176.95 125.275C176.51 125.196 176.498 126.211 176.935 126.495C177.876 127.106 178.501 124.98 177.601 124.233C177.198 123.898 177.138 123.952 177.208 124.587ZM184.132 124.121C184.24 124.23 184.194 124.574 184.026 124.886C183.833 125.248 183.832 125.522 184.024 125.64C184.428 125.89 184.074 126.749 183.568 126.749C183.345 126.749 183.078 126.972 182.974 127.245C182.645 128.101 182.76 128.136 183.527 127.415C183.936 127.03 184.567 126.693 184.929 126.666C185.463 126.626 185.554 126.467 185.41 125.819C185.046 124.159 184.924 123.922 184.435 123.922C184.159 123.922 184.023 124.011 184.132 124.121ZM205.538 124.236C205.354 124.533 205.565 124.67 206.086 124.587C206.216 124.567 206.322 124.77 206.322 125.04C206.322 125.309 206.204 125.456 206.061 125.368C205.919 125.279 205.827 125.518 205.857 125.9C205.888 126.28 205.757 126.695 205.567 126.822C205.331 126.981 205.349 127.054 205.622 127.057C205.842 127.06 206.177 126.719 206.368 126.3C206.935 125.057 206.183 123.191 205.538 124.236ZM207.891 124.236C207.891 124.409 208.067 124.552 208.284 124.555C208.545 124.558 208.519 124.661 208.205 124.864C207.946 125.032 207.887 125.171 208.075 125.173C208.588 125.18 208.808 124.854 208.621 124.362C208.427 123.858 207.891 123.766 207.891 124.236ZM109.55 124.446C109.236 124.759 109.298 126.12 109.626 126.12C109.782 126.12 109.832 125.823 109.737 125.46C109.636 125.074 109.745 124.685 110.002 124.523C110.242 124.371 110.287 124.244 110.099 124.24C109.913 124.238 109.665 124.33 109.55 124.446ZM75.5228 124.874C74.8213 125.156 74.6026 125.639 75.052 125.912C75.1822 125.991 75.5419 125.717 75.8514 125.303C76.1621 124.888 76.3736 124.56 76.3222 124.57C76.2709 124.581 75.9112 124.717 75.5228 124.874ZM127.24 125.204C127.251 125.973 127.885 127.062 128.324 127.062C128.455 127.062 128.375 126.836 128.147 126.561C127.918 126.285 127.686 125.764 127.631 125.403C127.485 124.448 127.229 124.318 127.24 125.204ZM139.528 125.649C139.331 126.08 139.222 126.434 139.284 126.434C139.348 126.434 139.63 126.08 139.913 125.649C140.195 125.217 140.305 124.864 140.156 124.864C140.007 124.864 139.724 125.217 139.528 125.649ZM138.242 126.261C138.224 127.067 138.322 127.394 138.521 127.196C138.71 127.007 138.72 126.534 138.548 125.956C138.272 125.032 138.269 125.035 138.242 126.261ZM80.7796 126.12C80.5119 126.622 80.5418 126.749 80.9254 126.749C81.199 126.749 81.4082 126.475 81.4082 126.12C81.4082 125.774 81.3424 125.492 81.2624 125.492C81.1811 125.492 80.9648 125.774 80.7796 126.12ZM208.042 126.128C208.106 126.982 208.519 127.308 208.519 126.505C208.519 126.141 208.402 125.771 208.259 125.682C208.115 125.594 208.018 125.795 208.042 126.128ZM90.2643 126.483C90.3408 126.715 90.6563 126.954 90.9646 127.014C91.3219 127.084 91.4725 126.97 91.3828 126.7C91.3052 126.468 90.9909 126.229 90.6826 126.169C90.3253 126.1 90.1735 126.212 90.2643 126.483ZM70.1835 127.501C70.1489 127.918 70.3245 128.334 70.5755 128.43C71.3128 128.713 71.4909 127.991 70.8432 127.343C70.2564 126.756 70.2445 126.758 70.1835 127.501ZM144.492 127.006C143.871 127.288 143.727 128.038 144.339 127.802C144.596 127.704 144.806 127.489 144.806 127.324C144.806 127.16 144.969 127.127 145.169 127.25C145.393 127.389 145.446 127.336 145.307 127.111C145.184 126.911 145.056 126.758 145.023 126.77C144.991 126.782 144.752 126.889 144.492 127.006ZM73.9251 127.862C73.4507 128.906 73.4662 129.059 73.9992 128.566C74.2406 128.344 74.3732 128.056 74.2943 127.925C74.2167 127.796 74.3015 127.691 74.4843 127.691C74.6672 127.691 74.8165 127.549 74.8165 127.377C74.8165 126.778 74.2884 127.066 73.9251 127.862ZM80.2395 131.537L80.2132 136.169H80.9576C81.4715 136.169 81.6495 136.031 81.5312 135.723C81.4285 135.457 81.591 135.224 81.9328 135.144C82.2482 135.071 82.0821 135.024 81.5647 135.041L80.623 135.071L80.445 130.987L80.2669 126.905L80.2395 131.537ZM190.943 127.394C190.943 127.577 190.818 127.65 190.665 127.556C190.343 127.356 189.51 128.246 189.772 128.508C189.995 128.731 191.57 127.709 191.57 127.341C191.57 127.188 191.429 127.062 191.256 127.062C191.084 127.062 190.943 127.212 190.943 127.394ZM209.025 127.51C209.247 128.092 210.202 128.19 210.009 127.612C209.938 127.396 209.644 127.173 209.357 127.118C208.992 127.048 208.892 127.166 209.025 127.51ZM192.826 127.703C192.826 127.88 193.037 128.105 193.295 128.204C193.553 128.303 193.672 128.533 193.56 128.714C193.442 128.907 193.508 128.95 193.719 128.82C194.185 128.532 194.19 128.552 193.454 127.921C193.108 127.624 192.826 127.527 192.826 127.703ZM65.8349 131.302C65.8349 133.374 65.8863 134.181 65.9473 133.095C66.0094 132.009 66.0082 130.313 65.9461 129.327C65.8839 128.34 65.8337 129.229 65.8349 131.302ZM115.751 127.972C116.293 128.184 116.301 128.23 115.83 128.411C115.249 128.634 115.108 129.261 115.64 129.261C115.825 129.261 116.202 129.036 116.475 128.761C117.024 128.212 116.588 127.681 115.617 127.717C115.303 127.729 115.349 127.813 115.751 127.972ZM133.327 128.168C133.661 128.42 134.01 128.55 134.103 128.455C134.3 128.258 133.503 127.697 133.037 127.705C132.864 127.708 132.995 127.917 133.327 128.168ZM118.947 129C119.098 129.247 119.002 129.302 118.652 129.166C118.364 129.056 118.128 129.088 118.128 129.237C118.128 129.385 118.341 129.589 118.599 129.688C118.919 129.811 119.07 130.312 119.07 131.253C119.07 132.101 118.888 132.789 118.599 133.028C117.889 133.619 118.024 133.832 119.149 133.89C120.053 133.937 120.089 133.91 119.463 133.653C119.075 133.494 118.757 133.28 118.757 133.178C118.757 133.075 118.898 133.079 119.07 133.186C119.269 133.308 119.384 132.508 119.384 131.007C119.384 129.545 119.256 128.632 119.052 128.632C118.869 128.632 118.821 128.798 118.947 129ZM136.197 128.932C135.862 129.053 135.721 129.23 135.882 129.324C136.044 129.419 136.449 129.397 136.782 129.275C137.115 129.154 137.258 128.978 137.096 128.883C136.935 128.789 136.53 128.81 136.197 128.932ZM209.719 131.302C209.663 132.771 209.724 133.972 209.853 133.972C209.982 133.972 210.088 132.77 210.088 131.302C210.088 127.852 209.85 127.854 209.719 131.302ZM128.592 131.145C128.592 132.44 128.647 132.97 128.715 132.322C128.783 131.675 128.783 130.614 128.715 129.968C128.647 129.32 128.592 129.849 128.592 131.145ZM72.7695 129.843C72.9547 130.17 72.8364 130.225 72.2664 130.078L71.5219 129.885L72.2306 130.25C73.0587 130.677 73.5534 130.369 72.9452 129.805C72.6106 129.495 72.5759 129.502 72.7695 129.843ZM147.592 130.579C147.936 131.508 148.573 131.676 148.573 130.838C148.573 130.469 148.431 130.253 148.259 130.36C148.086 130.466 147.945 130.404 147.945 130.221C147.945 130.038 147.808 129.889 147.641 129.889C147.461 129.889 147.44 130.167 147.592 130.579ZM194.577 130.476C194.481 130.632 194.613 130.934 194.87 131.148C195.25 131.463 195.337 131.444 195.337 131.045C195.337 130.459 194.824 130.075 194.577 130.476ZM83.7874 131.033C83.5137 131.749 83.6679 131.767 84.3108 131.093C84.7291 130.654 84.7554 130.516 84.4231 130.516C84.1829 130.516 83.8961 130.748 83.7874 131.033ZM174.309 130.997C174.309 131.252 174.52 131.459 174.779 131.459C175.039 131.459 175.25 131.333 175.25 131.179C175.25 131.025 175.039 130.816 174.779 130.717C174.493 130.607 174.309 130.717 174.309 130.997ZM147.467 132.425C147.17 133.36 147.416 133.433 147.841 132.535C148.038 132.116 148.081 131.773 147.936 131.773C147.792 131.773 147.58 132.066 147.467 132.425ZM161.754 132.217C161.754 132.451 162.026 132.713 162.359 132.8C162.769 132.906 162.912 132.825 162.806 132.547C162.582 131.964 161.754 131.705 161.754 132.217ZM175.646 132.932C175.937 133.223 176.265 133.374 176.372 133.266C176.682 132.958 176.208 132.401 175.635 132.401C175.156 132.401 175.157 132.443 175.646 132.932ZM108.765 133.245C108.257 134.194 108.308 134.421 108.896 133.833C109.168 133.56 109.333 133.162 109.261 132.948C109.182 132.709 108.991 132.823 108.765 133.245ZM141.802 133.363C141.802 133.784 141.905 133.85 142.193 133.612C142.483 133.372 142.636 133.497 142.787 134.1C142.899 134.547 143.187 134.913 143.427 134.913C143.986 134.913 143.994 134.393 143.439 134.065C143.206 133.926 142.952 133.614 142.874 133.37C142.661 132.704 141.802 132.698 141.802 133.363ZM188.783 133.422C188.81 133.959 188.853 133.996 188.963 133.575C189.042 133.27 189.259 133.116 189.446 133.23C189.648 133.355 189.693 133.293 189.56 133.077C189.188 132.474 188.743 132.67 188.783 133.422ZM199.303 133.186C199.402 133.445 199.327 133.657 199.137 133.657C198.946 133.657 198.789 133.886 198.789 134.167C198.789 134.584 198.874 134.606 199.26 134.285C199.782 133.851 199.903 132.715 199.426 132.715C199.259 132.715 199.204 132.927 199.303 133.186ZM104.149 133.363C104.035 133.549 104.018 133.775 104.11 133.867C104.334 134.091 104.947 133.694 104.947 133.325C104.947 132.923 104.405 132.95 104.149 133.363ZM152.653 133.29C152.653 133.492 152.441 133.657 152.182 133.657C151.923 133.657 151.711 133.869 151.711 134.128C151.711 134.387 151.847 134.6 152.014 134.6C152.395 134.6 153.081 133.352 152.835 133.106C152.734 133.007 152.653 133.089 152.653 133.29ZM75.4439 133.937C75.4439 134.149 75.3161 134.242 75.1583 134.145C75.0006 134.047 74.9026 134.176 74.9396 134.431C75.0556 135.224 75.377 135.305 75.6017 134.6C75.7188 134.228 75.7319 133.84 75.6303 133.737C75.5276 133.636 75.4439 133.725 75.4439 133.937ZM116.088 134.285C116.401 134.631 116.882 134.904 117.158 134.894C117.483 134.881 117.411 134.774 116.952 134.589C116.564 134.433 116.246 134.16 116.246 133.981C116.246 133.803 116.082 133.657 115.883 133.657C115.677 133.657 115.767 133.929 116.088 134.285ZM189.607 134.325C189.784 135.002 190.629 135.129 190.629 134.479C190.629 134.24 190.365 133.975 190.041 133.89C189.589 133.772 189.489 133.873 189.607 134.325ZM102.433 134.445C102.118 134.826 102.137 134.913 102.536 134.913C103.121 134.913 103.505 134.401 103.105 134.154C102.948 134.057 102.647 134.188 102.433 134.445ZM69.1917 135.01C69.1773 135.524 69.2992 135.811 69.4809 135.698C69.6541 135.592 69.7952 135.716 69.7952 135.975C69.7952 136.234 69.9362 136.533 70.1094 136.641C70.2923 136.753 70.4225 136.434 70.4225 135.874C70.4225 135.255 70.2648 134.913 69.978 134.913C69.7342 134.913 69.4629 134.736 69.3757 134.521C69.2885 134.304 69.206 134.525 69.1917 135.01ZM110.014 135.159C109.498 135.331 109.571 136.07 110.125 136.283C110.385 136.382 110.596 136.337 110.596 136.181C110.596 136.027 110.81 135.686 111.07 135.426C111.554 134.94 111.05 134.814 110.014 135.159ZM133.564 135.514C134.069 136.324 135.078 136.921 135.072 136.407C135.064 135.744 134.594 135.219 133.887 135.083C133.308 134.971 133.263 135.032 133.564 135.514ZM174.701 135.121C174.486 135.208 174.309 135.561 174.309 135.904C174.309 136.778 175.315 136.527 175.452 135.619C175.56 134.912 175.432 134.826 174.701 135.121ZM138.559 135.541C138.548 135.8 138.643 136.156 138.769 136.333C139.158 136.875 140.727 137.773 140.727 137.454C140.727 137.289 140.451 137.066 140.115 136.96C139.744 136.841 139.571 136.586 139.678 136.311C139.783 136.036 139.662 135.855 139.374 135.855C139.111 135.855 138.824 135.678 138.737 135.463C138.63 135.195 138.572 135.22 138.559 135.541ZM64.0831 136.338C63.7843 136.994 63.813 137.228 64.2468 137.662C64.7606 138.175 64.9602 137.945 64.806 137.02C64.7833 136.883 64.9136 136.495 65.094 136.156C65.3557 135.667 65.3223 135.541 64.9351 135.541C64.6662 135.541 64.2826 135.899 64.0831 136.338ZM88.5638 136.338C88.1456 137.256 88.5519 137.834 89.8819 138.206L90.667 138.426L89.9763 137.919C89.4684 137.546 89.3167 137.165 89.4039 136.477C89.5485 135.332 89.0586 135.252 88.5638 136.338ZM109.341 137.059C109.341 137.433 109.469 137.739 109.627 137.739C109.946 137.739 109.898 136.936 109.559 136.597C109.439 136.477 109.341 136.685 109.341 137.059ZM152.518 137.076C152.423 137.229 152.526 137.504 152.746 137.687C153.047 137.937 153.146 137.867 153.146 137.408C153.146 136.771 152.814 136.596 152.518 137.076ZM165.871 137.142C165.85 137.418 165.517 137.807 165.129 138.007C164.434 138.365 164.436 138.367 165.206 138.173C166.213 137.92 166.232 137.897 166.056 137.214C165.941 136.773 165.899 136.757 165.871 137.142ZM181.213 137.425C181.213 137.77 181.354 138.054 181.528 138.054C181.7 138.054 181.841 137.77 181.841 137.425C181.841 137.079 181.7 136.797 181.528 136.797C181.354 136.797 181.213 137.079 181.213 137.425ZM70.2134 137.583C70.2134 138.121 70.6042 138.208 70.8969 137.735C71.0057 137.559 71.2471 137.51 71.4347 137.626C71.6379 137.751 71.6844 137.69 71.5518 137.474C71.2256 136.947 70.2134 137.029 70.2134 137.583ZM94.5006 137.733C94.3608 138.267 94.4253 138.31 94.9427 138.032C95.2761 137.854 95.4661 137.573 95.3646 137.409C95.0634 136.923 94.6738 137.069 94.5006 137.733ZM186.874 137.548C187.126 137.79 187.687 138.09 188.118 138.215L188.903 138.445L188.069 137.779C187.112 137.012 186.108 136.82 186.874 137.548ZM202.31 137.474C202.377 137.674 202.739 137.951 203.117 138.09C203.737 138.319 203.765 138.286 203.416 137.727C203.007 137.071 202.107 136.864 202.31 137.474ZM128.44 138.133C128.598 138.291 129.061 138.368 129.47 138.304C130.098 138.204 130.054 138.16 129.182 138.016C128.558 137.913 128.265 137.958 128.44 138.133ZM142.995 138.74C143.063 138.946 143.288 139.169 143.492 139.237C143.721 139.314 143.792 139.171 143.675 138.864C143.455 138.294 142.807 138.175 142.995 138.74ZM204.752 138.838C204.968 139.098 205.268 139.309 205.418 139.309C205.57 139.309 205.694 139.098 205.694 138.838C205.694 138.568 205.411 138.367 205.027 138.367C204.472 138.367 204.426 138.445 204.752 138.838ZM208.205 138.838C207.665 139.147 207.58 139.29 207.931 139.298C208.212 139.304 208.617 139.098 208.832 138.838C209.31 138.262 209.212 138.262 208.205 138.838Z" fill="white"/>
</svg>
